<?xml version="1.0" encoding="UTF-8" standalone="no"?>
<svg
   xmlns:dc="http://purl.org/dc/elements/1.1/"
   xmlns:cc="http://creativecommons.org/ns#"
   xmlns:rdf="http://www.w3.org/1999/02/22-rdf-syntax-ns#"
   xmlns:svg="http://www.w3.org/2000/svg"
   xmlns="http://www.w3.org/2000/svg"
   xmlns:sodipodi="http://sodipodi.sourceforge.net/DTD/sodipodi-0.dtd"
   xmlns:inkscape="http://www.inkscape.org/namespaces/inkscape"
   width="64"
   height="64"
   viewBox="0 0 32 32"
   version="1.1"
   id="svg835"
   sodipodi:docname="mongodb-icon 1.svg"
   inkscape:version="0.92.5 (2060ec1f9f, 2020-04-08)">
  <metadata
     id="metadata841">
    <rdf:RDF>
      <cc:Work
         rdf:about="">
        <dc:format>image/svg+xml</dc:format>
        <dc:type
           rdf:resource="http://purl.org/dc/dcmitype/StillImage" />
        <dc:title></dc:title>
      </cc:Work>
    </rdf:RDF>
  </metadata>
  <defs
     id="defs839" />
  <sodipodi:namedview
     pagecolor="#ffffff"
     bordercolor="#666666"
     borderopacity="1"
     objecttolerance="10"
     gridtolerance="10"
     guidetolerance="10"
     inkscape:pageopacity="0"
     inkscape:pageshadow="2"
     inkscape:window-width="1280"
     inkscape:window-height="657"
     id="namedview837"
     showgrid="false"
     inkscape:zoom="3.828125"
     inkscape:cx="32"
     inkscape:cy="32"
     inkscape:window-x="-8"
     inkscape:window-y="-8"
     inkscape:window-maximized="1"
     inkscape:current-layer="svg835" />
  <path
     d="m 14.127832,8.0675473 0.640452,1.2029097 c 0.143989,0.2219833 0.299977,0.4184686 0.483713,0.6014548 0.53621,0.5362102 1.045422,1.0979172 1.502887,1.6993722 1.085169,1.424893 1.817114,3.007274 2.339825,4.718646 0.313476,1.045421 0.483713,2.117841 0.496462,3.202259 0.0525,3.242007 -1.05892,6.025798 -3.299752,8.339374 -0.365972,0.365973 -0.757443,0.704947 -1.177411,1.006425 -0.221984,0 -0.326976,-0.170238 -0.418469,-0.326976 -0.170237,-0.287228 -0.274479,-0.614954 -0.326975,-0.941179 -0.07874,-0.392221 -0.130491,-0.784441 -0.104992,-1.189411 v -0.182986 c -0.018,-0.039 -0.213734,-18.0376456 -0.13574,-18.1298887 z"
     id="path829"
     inkscape:connector-curvature="0"
     style="fill:#599636;stroke-width:0.74994367" />
  <path
     d="m 14.127832,8.0278003 c -0.02625,-0.052496 -0.0525,-0.012749 -0.07874,0.012749 0.01275,0.2624803 -0.07874,0.4964627 -0.221984,0.7199459 -0.157488,0.2219833 -0.365972,0.3922205 -0.575207,0.5752068 -1.162412,1.006425 -2.077344,2.222083 -2.810039,3.581731 -0.9749263,1.829863 -1.4773886,3.790965 -1.6198779,5.85556 -0.065245,0.744694 0.2354824,3.372497 0.4702147,4.13069 0.6404519,2.012849 1.7908652,3.699472 3.2810032,5.163362 0.365973,0.352474 0.757444,0.679449 1.162413,0.993676 0.117741,0 0.13049,-0.104992 0.157488,-0.182986 a 3.5847308,3.5847308 0 0 0 0.117741,-0.509962 l 0.262481,-1.960353 z"
     id="path831"
     inkscape:connector-curvature="0"
     style="fill:#6cac48;stroke-width:0.74994367" />
  <path
     d="m 14.768284,29.634428 c 0.02625,-0.299978 0.170237,-0.548959 0.326975,-0.79719 -0.157488,-0.06525 -0.274479,-0.194986 -0.365972,-0.339725 -0.07874,-0.13049 -0.14399,-0.287228 -0.194986,-0.431217 -0.182986,-0.548959 -0.221983,-1.124916 -0.274479,-1.685874 v -0.339724 c -0.06524,0.0525 -0.07874,0.496462 -0.07874,0.562457 a 13.026522,13.026522 0 0 1 -0.235483,1.764618 c -0.039,0.235482 -0.06525,0.470215 -0.209984,0.679449 0,0.02625 0,0.0525 0.01275,0.09149 0.235483,0.692948 0.299978,1.398645 0.339725,2.117841 v 0.26248 c 0,0.313477 -0.01275,0.247482 0.247481,0.352474 0.104992,0.039 0.221983,0.0525 0.326976,0.13049 0.07874,0 0.09149,-0.06525 0.09149,-0.117741 l -0.039,-0.431218 v -1.202909 c -0.01275,-0.209985 0.02625,-0.418469 0.0525,-0.614954 z"
     id="path833"
     inkscape:connector-curvature="0"
     style="fill:#c2bfbf;stroke-width:0.74994367" />
</svg>
