<?xml version="1.0" encoding="UTF-8" standalone="no"?>
<svg
   xmlns:dc="http://purl.org/dc/elements/1.1/"
   xmlns:cc="http://creativecommons.org/ns#"
   xmlns:rdf="http://www.w3.org/1999/02/22-rdf-syntax-ns#"
   xmlns:svg="http://www.w3.org/2000/svg"
   xmlns="http://www.w3.org/2000/svg"
   xmlns:sodipodi="http://sodipodi.sourceforge.net/DTD/sodipodi-0.dtd"
   xmlns:inkscape="http://www.inkscape.org/namespaces/inkscape"
   fill="#000000"
   viewBox="0 0 24 24"
   width="48px"
   height="48px"
   version="1.1"
   id="svg887"
   sodipodi:docname="mysql.svg"
   inkscape:version="0.92.5 (2060ec1f9f, 2020-04-08)">
  <metadata
     id="metadata893">
    <rdf:RDF>
      <cc:Work
         rdf:about="">
        <dc:format>image/svg+xml</dc:format>
        <dc:type
           rdf:resource="http://purl.org/dc/dcmitype/StillImage" />
        <dc:title></dc:title>
      </cc:Work>
    </rdf:RDF>
  </metadata>
  <defs
     id="defs891" />
  <sodipodi:namedview
     pagecolor="#ffffff"
     bordercolor="#666666"
     borderopacity="1"
     objecttolerance="10"
     gridtolerance="10"
     guidetolerance="10"
     inkscape:pageopacity="0"
     inkscape:pageshadow="2"
     inkscape:window-width="1280"
     inkscape:window-height="657"
     id="namedview889"
     showgrid="false"
     inkscape:zoom="5.1041667"
     inkscape:cx="24"
     inkscape:cy="24"
     inkscape:window-x="-8"
     inkscape:window-y="-8"
     inkscape:window-maximized="1"
     inkscape:current-layer="svg887" />
  <path
     d="M 3.3180044,-1 C 2.3296407,-1 1.548618,-0.47581818 1.1787998,0.43181818 1.0620726,0.71218182 1.0030441,1.0095057 1.0019532,1.3160512 1.0008632,2.3316875 1.6553907,3.1560569 2.048118,3.6491478 2.116845,3.7353298 2.1786862,3.8121023 2.2441407,3.9048296 l 0.1768467,0.2343749 c 0.1756363,0.2301819 0.3756476,0.49125 0.4389204,0.6221591 0.020727,0.06 0.048136,0.1652046 0.085227,0.2982955 0.1712728,0.6163636 0.4909261,1.7618864 0.9992899,2.6335227 0.2050908,0.3512727 0.4937215,0.7927841 0.7009943,1.1036933 -0.1385455,0.6938184 -0.3728694,1.9718519 -0.3728694,2.7485799 0,1.363636 0.2827842,2.458772 0.8991478,3.460227 0.2279999,0.357818 0.9237613,1.448863 2.1008522,1.448863 0.4178182,0 1.1120795,-0.163209 1.2997159,-1.199573 0.8345455,1.076727 2.2457385,2.426846 4.4275575,3.381392 0,0 -4.0900404,-4.77225 -4.8089495,-7.747159 0,-1e-6 -0.7823693,0.793022 -1.446733,2.411931 C 6.5455953,12.8015 6.454368,12.238182 6.454368,11.545455 c 0,-0.684 0.3008864,-2.2130459 0.4176136,-2.7443186 L 6.9742544,8.3387784 6.7057885,7.9488636 C 6.7014248,7.9412273 6.1518964,7.1478807 5.8300783,6.5958807 5.4635328,5.967517 5.1932089,4.9951761 5.048118,4.4737216 4.9772089,4.2195397 4.9215044,4.0355852 4.8691407,3.9112216 4.6782316,3.497767 4.3986862,3.1346477 4.1532316,2.8139205 L 4.016868,2.6328125 C 3.9481407,2.5335397 3.8573396,2.4185 3.7547941,2.2897727 3.5551578,2.0388636 3.1835158,1.5713068 3.1944249,1.2713068 l 0.1214488,-0.085227 0.00213,-0.00426 c 0.8672727,0 1.9844488,0.6156477 2.4055397,0.8480114 0.1374546,0.075273 0.238449,0.1272783 0.2919034,0.1512783 l 0.1896308,0.083097 0.3728692,0.012784 c 0.4876365,0.010909 1.9697728,0.04558 3.0170455,0.4644887 1.9101817,0.7636363 2.9663177,1.5280227 4.0397717,2.9232954 2.535273,3.2967273 3.470676,7.5661194 3.479404,7.6086644 l 0.136363,0.615768 0.596591,0.193892 c 0.02073,0.0076 1.690433,0.565602 3.24716,2.024148 -1.958182,0.484363 -2.639915,1.43821 -2.639915,1.43821 0,0 0.519273,1.012363 3,2.590909 1.5,0.954545 2.318182,1.636363 3.545455,2.863636 0,0 -1.226523,-2.727477 -2.940341,-4.900569 1.304726,-0.417817 2.90838,-0.634943 2.90838,-0.634943 L 23.974964,16.08807 C 22.340783,13.822251 20.149265,12.678755 19.106356,12.233664 18.744175,10.852573 17.650334,7.3068636 15.36488,4.3352273 14.05688,2.6345 12.665016,1.6174318 10.404652,0.71306818 9.0661066,0.17852273 7.4566067,0.11475571 6.7398794,0.09730116 6.1126066,-0.24742611 4.7187316,-1 3.3180044,-1 Z m 4.4318182,4.3636364 c 0,0 -0.4772728,0 -1.0227273,0.1363636 l 1.5,2.0433239 c 0.4090909,-0.5432727 0.4090909,-1.178267 0.4090909,-1.178267 0,0 -0.2721818,-0.7286933 -0.8863636,-1.0014205 z"
     id="path885"
     style="fill:#00546b;fill-opacity:1;stroke-width:1.09090912"
     inkscape:connector-curvature="0" />
</svg>
