<?xml version="1.0" encoding="UTF-8" standalone="no"?>
<!-- Generator: Adobe Illustrator 16.0.0, SVG Export Plug-In . SVG Version: 6.00 Build 0)  -->

<svg
   xmlns:dc="http://purl.org/dc/elements/1.1/"
   xmlns:cc="http://creativecommons.org/ns#"
   xmlns:rdf="http://www.w3.org/1999/02/22-rdf-syntax-ns#"
   xmlns:svg="http://www.w3.org/2000/svg"
   xmlns="http://www.w3.org/2000/svg"
   xmlns:sodipodi="http://sodipodi.sourceforge.net/DTD/sodipodi-0.dtd"
   xmlns:inkscape="http://www.inkscape.org/namespaces/inkscape"
   version="1.1"
   id="Capa_1"
   x="0px"
   y="0px"
   width="48"
   height="37"
   viewBox="0 0 48.000001 37.000001"
   xml:space="preserve"
   sodipodi:docname="responsive-design.svg"
   inkscape:version="0.92.5 (2060ec1f9f, 2020-04-08)"><metadata
   id="metadata907"><rdf:RDF><cc:Work
       rdf:about=""><dc:format>image/svg+xml</dc:format><dc:type
         rdf:resource="http://purl.org/dc/dcmitype/StillImage" /><dc:title></dc:title></cc:Work></rdf:RDF></metadata><defs
   id="defs905" /><sodipodi:namedview
   pagecolor="#ffffff"
   bordercolor="#666666"
   borderopacity="1"
   objecttolerance="10"
   gridtolerance="10"
   guidetolerance="10"
   inkscape:pageopacity="0"
   inkscape:pageshadow="2"
   inkscape:window-width="1280"
   inkscape:window-height="657"
   id="namedview903"
   showgrid="false"
   inkscape:pagecheckerboard="true"
   inkscape:zoom="6.9909221"
   inkscape:cx="25.893485"
   inkscape:cy="29.011072"
   inkscape:window-x="-8"
   inkscape:window-y="-8"
   inkscape:window-maximized="1"
   inkscape:current-layer="Capa_1" />
<g
   id="g870"
   transform="matrix(0.12106141,0,0,0.12106141,0,-5.4089204)"
   style="fill:#0044aa">
	<path
   d="m 304.42,330.901 h -43.219 c -1.56,0 -2.834,-1.273 -2.834,-2.834 v -10.52 c 0,-1.559 -1.275,-2.834 -2.834,-2.834 h -60.475 c -1.56,0 -2.835,1.275 -2.835,2.834 v 10.52 c 0,1.561 -1.275,2.834 -2.835,2.834 h -32.491 c -1.56,0 -2.835,1.275 -2.835,2.834 v 12.17 c 0,1.559 1.275,2.834 2.835,2.834 h 147.521 c 1.559,0 2.834,-1.275 2.834,-2.834 v -12.17 c 0.002,-1.556 -1.273,-2.834 -2.832,-2.834 z"
   id="path862"
   inkscape:connector-curvature="0"
   style="fill:#0044aa" />
	<g
   id="g868"
   style="fill:#0044aa">
		<path
   d="m 377.032,46.368 h -308.4 c -10.73,0 -19.459,8.73 -19.459,19.462 0,0 0,37.109 0,50.761 0,6.711 -0.498,7.66 4.004,7.66 2.391,0 5.039,0 7.72,0 3.778,0 3.003,-0.949 3.003,-7.785 0,-13.621 0,-50.636 0,-50.636 0,-2.565 2.168,-4.733 4.732,-4.733 h 308.4 c 2.563,0 4.731,2.168 4.731,4.733 v 189.999 h -219.87 c 0,0 -7.749,-0.014 -7.749,10.006 0,5.941 0,17.823 0,23.766 0,10.006 8,10.006 8,10.006 h 214.888 c 10.729,0 19.461,-8.729 19.461,-19.459 V 65.83 c 0,-10.731 -8.73,-19.462 -19.461,-19.462 z M 222.833,282.804 c -4.845,0 -8.771,-3.926 -8.771,-8.768 0,-4.842 3.926,-8.77 8.771,-8.77 4.84,0 8.767,3.928 8.767,8.77 0,4.842 -3.927,8.768 -8.767,8.768 z"
   id="path864"
   inkscape:connector-curvature="0"
   style="fill:#0044aa" />
		<path
   d="M 124.125,141.633 H 12.559 C 5.632,141.633 0,147.266 0,154.193 v 183.372 c 0,6.926 5.632,12.561 12.559,12.561 h 111.566 c 6.923,0 12.559,-5.635 12.559,-12.561 V 154.193 c 0,-6.927 -5.636,-12.56 -12.559,-12.56 z m -69.545,12.81 h 27.523 c 1.313,0 2.38,1.064 2.38,2.381 0,1.314 -1.066,2.379 -2.38,2.379 H 54.58 c -1.315,0 -2.379,-1.065 -2.379,-2.379 0,-1.317 1.064,-2.381 2.379,-2.381 z m 13.595,186.861 c -3.59,0 -6.5,-2.91 -6.5,-6.5 0,-3.59 2.91,-6.5 6.5,-6.5 3.59,0 6.5,2.91 6.5,6.5 0,3.59 -2.91,6.5 -6.5,6.5 z M 125.893,322.2 c 0,1.676 -1.342,3.047 -2.98,3.047 H 13.774 c -1.639,0 -2.98,-1.371 -2.98,-3.047 V 169.825 c 0,-1.676 1.342,-3.046 2.98,-3.046 h 109.139 c 1.639,0 2.98,1.371 2.98,3.046 z"
   id="path866"
   inkscape:connector-curvature="0"
   style="fill:#0044aa" />
	</g>
</g>
<g
   id="g872"
   transform="translate(0,-359.49399)">
</g>
<g
   id="g874"
   transform="translate(0,-359.49399)">
</g>
<g
   id="g876"
   transform="translate(0,-359.49399)">
</g>
<g
   id="g878"
   transform="translate(0,-359.49399)">
</g>
<g
   id="g880"
   transform="translate(0,-359.49399)">
</g>
<g
   id="g882"
   transform="translate(0,-359.49399)">
</g>
<g
   id="g884"
   transform="translate(0,-359.49399)">
</g>
<g
   id="g886"
   transform="translate(0,-359.49399)">
</g>
<g
   id="g888"
   transform="translate(0,-359.49399)">
</g>
<g
   id="g890"
   transform="translate(0,-359.49399)">
</g>
<g
   id="g892"
   transform="translate(0,-359.49399)">
</g>
<g
   id="g894"
   transform="translate(0,-359.49399)">
</g>
<g
   id="g896"
   transform="translate(0,-359.49399)">
</g>
<g
   id="g898"
   transform="translate(0,-359.49399)">
</g>
<g
   id="g900"
   transform="translate(0,-359.49399)">
</g>
</svg>